inDegrees=no
num_controls=7
num_derivatives=13
num_iterations=198
num_multipliers=7
num_parameters=0
num_slacks=7
num_states=26
objective=5.939075
objective_accelerations=0.768703
objective_balance=0.017118
objective_effort=0.520362
objective_height=4.562450
objective_ligament=0.070442
solver_duration=1713.085170
status=Solve_Succeeded
success=true
DataType=double
version=3
OpenSimVersion=4.4-2022-07-23-0e9fedc
endheader
time	/jointset/ground_pelvis/pelvis_tilt/value	/jointset/ground_pelvis/pelvis_tx/value	/jointset/ground_pelvis/pelvis_ty/value	/jointset/hip_r/hip_flexion_r/value	/jointset/hip_r/hip_adduction_r/value	/jointset/hip_r/hip_rotation_r/value	/jointset/back/lumbar_extension/value	/jointset/patellofemoral_r/patellar_flexion_r/value	/jointset/knee_r/knee_flexion_r/value	/jointset/knee_r/knee_adduction_r/value	/jointset/knee_r/knee_rotation_r/value	/jointset/ankle_r/ankle_angle_r/value	/jointset/subtalar_r/subtalar_angle_r/value	/jointset/ground_pelvis/pelvis_tilt/speed	/jointset/ground_pelvis/pelvis_tx/speed	/jointset/ground_pelvis/pelvis_ty/speed	/jointset/hip_r/hip_flexion_r/speed	/jointset/hip_r/hip_adduction_r/speed	/jointset/hip_r/hip_rotation_r/speed	/jointset/back/lumbar_extension/speed	/jointset/patellofemoral_r/patellar_flexion_r/speed	/jointset/knee_r/knee_flexion_r/speed	/jointset/knee_r/knee_adduction_r/speed	/jointset/knee_r/knee_rotation_r/speed	/jointset/ankle_r/ankle_angle_r/speed	/jointset/subtalar_r/subtalar_angle_r/speed	/forceset/tau_hip_flexion_r	/forceset/tau_hip_adduction_r	/forceset/tau_hip_rotation_r	/forceset/tau_knee_flexion_r	/forceset/tau_ankle_angle_r	/forceset/tau_subtalar_angle_r	/forceset/tau_lumbar_extension	lambda_cid13_p0	lambda_cid14_p0	lambda_cid14_p1	lambda_cid14_p2	lambda_cid14_p3	lambda_cid14_p4	lambda_cid14_p5	/jointset/ground_pelvis/pelvis_tilt/accel	/jointset/ground_pelvis/pelvis_tx/accel	/jointset/ground_pelvis/pelvis_ty/accel	/jointset/hip_r/hip_flexion_r/accel	/jointset/hip_r/hip_adduction_r/accel	/jointset/hip_r/hip_rotation_r/accel	/jointset/back/lumbar_extension/accel	/jointset/patellofemoral_r/patellar_flexion_r/accel	/jointset/knee_r/knee_flexion_r/accel	/jointset/knee_r/knee_adduction_r/accel	/jointset/knee_r/knee_rotation_r/accel	/jointset/ankle_r/ankle_angle_r/accel	/jointset/subtalar_r/subtalar_angle_r/accel	gamma_cid13_p0	gamma_cid14_p0	gamma_cid14_p1	gamma_cid14_p2	gamma_cid14_p3	gamma_cid14_p4	gamma_cid14_p5
1	-0.2779196983089475	-0.02775012784077626	0.5716539003368715	1.630609376220103	-0.242963022942701	-0.04602710417794283	-0.785398045450581	1.667400433851666	1.667400433851679	-0.1745329251994329	0.1745329221306421	0.4361998729004587	0.1659584240293415	0.06916203349517014	0.004234928972785551	0.01585910660138246	-0.1001241960354862	-0.001203191048453904	-0.00337679184113825	2.220899811958779e-05	-0.01646745181791433	-0.01646745181791415	0.002231193839497508	-0.0002140996022284288	0.014644494986988	0.005113093262977715	-0.3698439126774551	0.008811003977290429	0.003652095513804872	-0.4922861648752997	-0.01120413449318225	0.009407585204080837	0.380692701927847	-0.03918882763090888	-56.21488642998747	-8.601407571271123	5.042110667236008	10.6312020798912	-789.9941827846167	77.95178139335786	1.186142308008003	0.06726236479841534	2.189234576945569	-6.244575274535248	0.2225386387238036	-1.108031465933517	-0.01094283345164533	-5.710436816869328	-5.710436816869326	0.3924158069949111	-0.03408918455350759	-0.8046311374301086	0.04625703558574865	1.57482975651021e-09	2.288576534693289e-09	4.162784717116684e-09	1.252740734211673e-08	-2.45843273258891e-09	-5.000317223525759e-09	1.233437606330512e-08
1.01	-0.2771693071404719	-0.02770436007677893	0.5719218140848299	1.629296630418155	-0.2429637684735806	-0.04611310657928366	-0.7853977924719499	1.66695067959593	1.666950679595935	-0.1744880716063285	0.1745286386660434	0.4363061671190945	0.1660121293955047	0.0809204906759754	0.004927530711821904	0.03771995927856084	-0.1624256692126198	0.001050503971148321	-0.01375456481969673	2.104805744771603e-05	-0.07347104103023289	-0.07347104103023366	0.006813539424259079	-0.0006350201181970406	0.006618371903649683	0.005621252566307296	-0.3690552453794667	0.008620115537803948	0.003754225074682846	-0.4927842011960658	-0.01034744653452673	0.009422832127194893	0.380257621202289	-0.03919025635110929	-55.91613916553784	-8.543066710093193	5.033482903114914	10.32883472986054	-789.757110899007	78.11990542894976	1.171342198950466	0.07159374138448026	2.18395570072299	-6.223038014911775	0.2262526285780346	-0.99228051400654	0.004196474793310316	-5.69346718534763	-5.693467185347775	0.5019772541995465	-0.0449478540079221	-0.8009992586799568	0.05209501786641725	4.751918992195252e-09	7.520199217633169e-09	2.914907062923502e-08	3.536278870163275e-08	-6.805262816375112e-09	-1.171031447422982e-08	6.45810718190801e-08
1.02	-0.2763012024450218	-0.02765139936280558	0.5724082253770839	1.627360848949313	-0.2429420835152644	-0.04630081277044595	-0.7853977712628801	1.665931260005683	1.665931260005681	-0.1743952189536941	0.1745203751225084	0.4363323129985824	0.1660707162827332	0.09270473889012797	0.005673518967989627	0.0595586154604999	-0.2247313294141277	0.003282906790733411	-0.02371754980583601	-2.414491649366532e-05	-0.1304005187199322	-0.130400518719934	0.01182921780833112	-0.001010115389741328	-0.001383605775459292	0.006089397476031324	-0.3682665780814809	0.008429227098321911	0.003856354635561036	-0.4932822375168318	-0.009490758575869472	0.009438079050318163	0.3798225404767286	-0.03920174856130748	-55.62383741273109	-8.484320329842086	5.023037847566211	10.03466414226738	-789.6161683338889	78.30363772122105	1.191300514677468	0.07793966822468622	2.184795277897705	-6.245412679410089	0.2182801987203779	-1.025073867449675	-0.01974924010556768	-5.695614512345478	-5.695614512345497	0.4790823668570043	-0.02492413566864374	-0.7998020565842459	0.03825415686463746	1.270640544453936e-08	1.976551296438556e-08	7.015317171809176e-08	8.721216157004674e-08	-1.693039257854863e-08	-2.101505519630558e-08	1.769627170569591e-07
1.03	-0.2753151927682069	-0.02759078864298569	0.5731128324304576	1.624802375550056	-0.2428981498237942	-0.04658605064837653	-0.7853981633974483	1.664342852149823	1.664342852149822	-0.1742500194639445	0.1745086373999455	0.436278176248468	0.1661336405086624	0.1044945698944733	0.006449841561888003	0.08135126279070021	-0.2869260022372446	0.005505775231706904	-0.03326678924841633	-3.789265343908791e-05	-0.1872758803505032	-0.1872758803505044	0.01727369491715737	-0.001331571618650926	-0.00948023399032793	0.00647954366556308	-0.3676556192021134	0.008458228136671426	0.003992541489503329	-0.4931026193515176	-0.009507703021687257	0.009489903703981983	0.3794882707469265	-0.03923261976893729	-55.60470452667519	-8.445903137623953	5.002567064434083	10.11139484829401	-789.2598666889395	78.37825198374252	1.172435648746429	0.07765555523940283	2.17476347124304	-6.200887393683072	0.2245989468730943	-0.9103546307584881	0.01048909472848739	-5.682725363596968	-5.682725363596861	0.5865758121370644	-0.03483855829131285	-0.8198304585545324	0.03704322690731075	2.070964084807389e-08	3.208239498729934e-08	1.113207199005888e-07	1.393575955763068e-07	-2.711448458233837e-08	-3.034627289257903e-08	2.899579842283294e-07
